HIERARCHY
ROOT joint_Root
{
	OFFSET 0.0 0.0 0.0
	CHANNELS 6 Xposition Yposition Zposition Zrotation Xrotation Yrotation 
	JOINT Hips
	{
		OFFSET -0.726466 93.3139 -2.00062
		CHANNELS 6 Xposition Yposition Zposition Zrotation Xrotation Yrotation 
		JOINT Spine
		{
			OFFSET 15.7357 0.0 0.0
			CHANNELS 6 Xposition Yposition Zposition Zrotation Xrotation Yrotation 
			JOINT Chest
			{
				OFFSET 8.98455 -0.406207 0.0
				CHANNELS 6 Xposition Yposition Zposition Zrotation Xrotation Yrotation 
				JOINT Neck
				{
					OFFSET 16.3773 0.0 0.0
					CHANNELS 6 Xposition Yposition Zposition Zrotation Xrotation Yrotation 
					JOINT Head
					{
						OFFSET 6.45672 0.0 0.0
						CHANNELS 6 Xposition Yposition Zposition Zrotation Xrotation Yrotation 
						End Site
						{
							OFFSET 0.0 0.0 0.0
						}
					}
				}
				JOINT Shoulder_L
				{
					OFFSET 12.9942 -0.242716 4.98039
					CHANNELS 6 Xposition Yposition Zposition Zrotation Xrotation Yrotation 
					JOINT UpperArm_L
					{
						OFFSET 5.34809 0.0 0.0
						CHANNELS 6 Xposition Yposition Zposition Zrotation Xrotation Yrotation 
						JOINT LowerArm_L
						{
							OFFSET 24.3286 1.87007e-05 0.0
							CHANNELS 6 Xposition Yposition Zposition Zrotation Xrotation Yrotation 
							JOINT Hand_L
							{
								OFFSET 22.2916 0.0 0.0
								CHANNELS 6 Xposition Yposition Zposition Zrotation Xrotation Yrotation 
								End Site
								{
									OFFSET 0.0 0.0 0.0
								}
							}
						}
					}
				}
				JOINT Shoulder_R
				{
					OFFSET 12.9945 -0.242716 -4.98039
					CHANNELS 6 Xposition Yposition Zposition Zrotation Xrotation Yrotation 
					JOINT UpperArm_R
					{
						OFFSET -5.34813 0.0 0.0
						CHANNELS 6 Xposition Yposition Zposition Zrotation Xrotation Yrotation 
						JOINT LowerArm_R
						{
							OFFSET -24.3289 0.000322201 0.0
							CHANNELS 6 Xposition Yposition Zposition Zrotation Xrotation Yrotation 
							JOINT Hand_R
							{
								OFFSET -22.2915 -0.000108084 0.0
								CHANNELS 6 Xposition Yposition Zposition Zrotation Xrotation Yrotation 
								End Site
								{
									OFFSET 0.0 0.0 0.0
								}
							}
						}
					}
				}
			}
		}
		JOINT UpperLeg_L
		{
			OFFSET -2.19248 -6.46944 0.0
			CHANNELS 6 Xposition Yposition Zposition Zrotation Xrotation Yrotation 
			JOINT LowerLeg_L
			{
				OFFSET 39.0811 0.0 -1.23785e-05
				CHANNELS 6 Xposition Yposition Zposition Zrotation Xrotation Yrotation 
				JOINT Foot_L
				{
					OFFSET 40.9854 0.0 -1.26872e-05
					CHANNELS 6 Xposition Yposition Zposition Zrotation Xrotation Yrotation 
					JOINT Toes_L
					{
						OFFSET 11.7543 0.0 0.0
						CHANNELS 6 Xposition Yposition Zposition Zrotation Xrotation Yrotation 
						End Site
						{
							OFFSET 0.0 0.0 0.0
						}
					}
				}
			}
		}
		JOINT UpperLeg_R
		{
			OFFSET -2.19251 6.46944 0.0
			CHANNELS 6 Xposition Yposition Zposition Zrotation Xrotation Yrotation 
			JOINT LowerLeg_R
			{
				OFFSET -39.0811 -0.00228153 -0.0401928
				CHANNELS 6 Xposition Yposition Zposition Zrotation Xrotation Yrotation 
				JOINT Foot_R
				{
					OFFSET -40.9854 0.0 0.0
					CHANNELS 6 Xposition Yposition Zposition Zrotation Xrotation Yrotation 
					JOINT Toes_R
					{
						OFFSET -11.7543 0.0 0.0
						CHANNELS 6 Xposition Yposition Zposition Zrotation Xrotation Yrotation 
						End Site
						{
							OFFSET 0.0 0.0 0.0
						}
					}
				}
			}
		}
	}
}
MOTION
Frames:	4
Frame Time:	0.0333333
0.000000 0.000000 0.000000 0.000000 0.000000 -0.000000 -0.897484 92.314400 -1.929030 88.231700 -0.992046 4.349070 15.735700 0.000005 -0.000001 83.748500 85.051900 -83.005300 8.984550 -0.406207 -0.000000 2.079390 -1.113770 1.505270 16.377300 -0.000001 -0.000001 2.838670 -2.768380 -0.483797 6.456720 -0.000001 -0.000000 5.017270 -3.419340 -1.599120 12.994200 -0.242716 4.980390 -90.262200 0.856878 -72.986900 5.348090 -0.000007 -0.000001 -66.558400 40.055300 -16.870000 24.328600 0.000019 0.000005 1.380140 3.247890 -23.036600 22.291600 -0.000001 0.000005 2.496070 5.459640 -4.984970 12.994500 -0.242716 -4.980390 88.119300 6.220870 -73.142000 -5.348130 -0.000001 -0.000004 -64.766600 42.033400 -16.449300 -24.328900 0.000322 -0.000009 1.991050 6.853990 -16.249300 -22.291500 -0.000108 -0.000004 8.102280 5.431480 -3.989840 -2.192480 -6.469440 -0.000000 -175.685000 -6.139920 -2.876880 39.081100 -0.000007 -0.000012 -0.097766 0.230244 23.007100 40.985400 -0.000006 -0.000013 -0.172453 3.669850 -65.996800 11.754300 -0.000000 0.000003 -0.000023 -0.000286 -16.588700 -2.192510 6.469440 -0.000001 179.817000 13.275600 -179.879000 -39.081100 -0.002282 -0.040193 -0.027606 0.086717 19.629000 -40.985400 0.000008 0.000006 3.732560 6.486250 -65.925100 -11.754300 -0.000006 -0.000006 -0.006060 -0.071381 -19.478200
0.000000 0.000000 0.000000 0.000000 0.000000 -0.000000 -0.898561 92.310500 -1.980570 88.232200 -0.901221 4.385890 15.735700 0.000005 -0.000001 83.924400 85.051100 -83.120500 8.984550 -0.406207 -0.000000 2.084560 -1.086700 1.626140 16.377300 -0.000001 -0.000001 2.868420 -2.826170 -0.494168 6.456720 -0.000001 -0.000000 5.054350 -3.530560 -1.678080 12.994200 -0.242716 4.980390 -90.369100 1.194890 -72.834100 5.348090 -0.000007 -0.000001 -65.552200 38.880600 -17.964700 24.328600 0.000019 0.000005 1.622630 3.654900 -23.955100 22.291600 -0.000001 0.000005 0.514816 5.440830 -4.309560 12.994500 -0.242716 -4.980390 88.165500 6.079630 -73.174000 -5.348130 -0.000001 -0.000004 -64.998900 41.891000 -16.240900 -24.328900 0.000322 -0.000009 1.975670 6.784420 -16.286200 -22.291500 -0.000108 -0.000004 8.107650 5.430890 -3.969580 -2.192480 -6.469440 -0.000000 -175.692000 -6.067800 -2.918210 39.081100 -0.000007 -0.000012 -0.097510 0.228983 23.066300 40.985400 -0.000006 -0.000013 -0.165407 3.681240 -65.984500 11.754300 -0.000000 0.000003 -0.000020 -0.000250 -16.587300 -2.192510 6.469440 -0.000001 179.782000 13.401300 -179.883000 -39.081100 -0.002282 -0.040193 -0.030889 0.095738 19.663800 -40.985400 0.000008 0.000006 3.625490 6.549080 -65.902100 -11.754300 -0.000006 -0.000006 -0.006225 -0.072867 -19.538800
0.000000 0.000000 0.000000 0.000000 0.000000 -0.000000 -0.902385 92.313200 -2.030180 88.247500 -0.726506 4.398150 15.735700 0.000005 -0.000001 84.583900 85.060700 -83.717100 8.984550 -0.406207 -0.000000 2.076770 -0.974822 1.749680 16.377300 -0.000001 -0.000001 2.859890 -2.960650 -0.544363 6.456720 -0.000001 -0.000000 5.164240 -3.761600 -1.821260 12.994200 -0.242716 4.980390 -90.477100 1.540580 -72.789300 5.348090 -0.000007 -0.000001 -63.842300 36.427000 -19.766800 24.328600 0.000019 0.000005 2.452510 4.981470 -26.251000 22.291600 -0.000001 0.000005 -1.502310 5.423650 -3.720560 12.994500 -0.242716 -4.980390 88.224100 5.886560 -73.179000 -5.348130 -0.000001 -0.000004 -65.332600 41.598900 -15.991400 -24.328900 0.000322 -0.000009 1.953920 6.729010 -16.241400 -22.291500 -0.000108 -0.000004 8.035270 5.430570 -3.958530 -2.192480 -6.469440 -0.000000 -175.718000 -5.965200 -2.977460 39.081100 -0.000007 -0.000012 -0.096242 0.225898 23.076100 40.985400 -0.000006 -0.000013 -0.151514 3.736840 -65.934800 11.754300 -0.000000 0.000003 -0.000023 -0.000288 -16.588800 -2.192510 6.469440 -0.000001 179.754000 13.561800 -179.898000 -39.081100 -0.002282 -0.040193 -0.033359 0.102694 19.656200 -40.985400 0.000008 0.000006 3.488870 6.546280 -65.847300 -11.754300 -0.000006 -0.000006 -0.005842 -0.069391 -19.397100
0.000000 0.000000 0.000000 0.000000 0.000000 -0.000000 -0.935546 92.314800 -2.102830 88.289400 -0.330085 4.488720 15.735700 0.000005 -0.000001 85.048500 85.072000 -84.124200 8.984550 -0.406207 -0.000000 2.061230 -0.896102 1.863070 16.377300 -0.000001 -0.000001 2.955350 -3.053770 -0.636747 6.456720 -0.000001 -0.000000 5.271610 -4.082520 -1.952790 12.994200 -0.242716 4.980390 -90.551900 1.778000 -72.752400 5.348090 -0.000007 -0.000001 -61.532000 32.823300 -22.386200 24.328600 0.000019 0.000005 2.762220 4.840930 -29.757500 22.291600 -0.000001 0.000005 -1.967640 5.418720 -3.555740 12.994500 -0.242716 -4.980390 88.262500 5.775810 -73.226000 -5.348130 -0.000001 -0.000004 -65.504800 41.510700 -15.725300 -24.328900 0.000322 -0.000009 1.965080 6.836330 -16.087400 -22.291500 -0.000108 -0.000004 7.999280 5.430690 -3.962800 -2.192480 -6.469440 -0.000000 -175.735000 -5.806720 -2.998730 39.081100 -0.000007 -0.000012 -0.096440 0.226274 23.084200 40.985400 -0.000006 -0.000013 -0.123962 3.967460 -65.854300 11.754300 -0.000000 0.000003 -0.000023 -0.000280 -16.588500 -2.192510 6.469440 -0.000001 179.692000 13.850200 -179.833000 -39.081100 -0.002282 -0.040193 -0.035094 0.107413 19.679400 -40.985400 0.000008 0.000006 3.436540 6.464190 -65.836800 -11.754300 -0.000006 -0.000006 -0.006109 -0.071821 -19.496200
